# xmcd
#
# Track frame offsets:
#	182
#	11567
#	26597
#	40830
#	54540
#	70375
#	82435
#	95652
#	106277
#	118397
#	129242
#	142505
#	158322
#	169255
#	184745
#	197252
#
# Disc length: 2830 seconds
#
# Revision: 2
# Processed by: cddbd v1.5.2PL0 Copyright (c) Steve Scherf et al.
# Submitted via: audiograbber 1.83.01
#
DISCID=d10b0c10
DTITLE=Dolly Parton - RCA Country Legends
DYEAR=2002
DGENRE=Country
TTITLE0=False Eyelashes
TTITLE1=Evening Shade
TTITLE2=Mule Skinner Blues (Blue Yodel No.8)
TTITLE3=Joshua
TTITLE4=Daddy's Moonshine Still
TTITLE5=Jolene
TTITLE6=I Will Always Love You
TTITLE7=Love Is Like A Butterfly
TTITLE8=The Bargain Store
TTITLE9=All I Can Do
TTITLE10=Hear You Come Again
TTITLE11=Heartbreaker
TTITLE12=Shattered Image
TTITLE13=Old Flames Can't Hold A Candle To You
TTITLE14=9 to 5
TTITLE15=Tennessee Homesick Blues
EXTD=
EXTT0=
EXTT1=
EXTT2=
EXTT3=
EXTT4=
EXTT5=
EXTT6=
EXTT7=
EXTT8=
EXTT9=
EXTT10=
EXTT11=
EXTT12=
EXTT13=
EXTT14=
EXTT15=
PLAYORDER=
